<svg width="178" height="207" fill="none" xmlns="http://www.w3.org/2000/svg"><circle cx="76.551" cy="129.551" r="76.551" fill="#DA18A3"/><path fill-rule="evenodd" clip-rule="evenodd" d="m95.5 186.5-14-2L.52 138.527a77.344 77.344 0 0 1-.52-8.976C0 87.273 34.273 53 76.551 53a76.476 76.476 0 0 1 24.042 3.852L95.5 186.5Z" fill="#F5ABCC"/><path d="m95.403 109.866-12.54 8.061 12.54 7.166 12.539-7.166-12.54-8.061Z" fill="#242424"/><path d="M95.402 55.23v54.636l12.54 8.061 52.845-30.453L95.402 55.23Z" fill="#565656"/><path d="M95.403 109.866V55.23L30.017 87.474l52.845 30.453 12.54-8.061Z" fill="#565656"/><path d="M99.088 14.665c-2.755-3.223-3.966-12.216 2.304-11.076 5.747 1.045.821 9.225-2.304 11.076Z" fill="#DA18A3"/><path fill-rule="evenodd" clip-rule="evenodd" d="M104.63 18.215a17.93 17.93 0 0 0-.676-.36l.367-.725c.229.116.465.242.706.377l-.397.708Zm2.607 1.677c-.441-.316-.872-.61-1.288-.879l.441-.682c.428.277.869.577 1.32.9l-.473.66Zm2.463 1.904a49.158 49.158 0 0 0-1.218-.976l.497-.643c.407.316.82.647 1.239.993l-.518.626Zm2.348 2.06c-.389-.36-.775-.708-1.158-1.044l.536-.61c.389.34.78.694 1.174 1.058l-.552.596Zm2.237 2.18a59.592 59.592 0 0 0-1.106-1.104l.567-.582c.373.363.747.736 1.12 1.117l-.581.569Zm2.134 2.285a71.16 71.16 0 0 0-1.053-1.155l.593-.554c.357.382.713.772 1.067 1.169l-.607.54Zm2.025 2.383c-.33-.407-.663-.808-.999-1.203l.619-.526c.34.4.677.806 1.011 1.218l-.631.51Zm1.907 2.476a61.64 61.64 0 0 0-.938-1.25l.643-.495c.321.416.638.838.95 1.265l-.655.48Zm1.778 2.568a59.82 59.82 0 0 0-.872-1.296l.668-.462c.3.434.595.872.884 1.314l-.68.444Zm1.63 2.661a53.7 53.7 0 0 0-.795-1.342l.692-.424c.277.45.546.905.808 1.363l-.705.403Zm1.458 2.755a44.541 44.541 0 0 0-.706-1.389l.718-.38c.248.469.488.94.719 1.414l-.731.355Zm1.254 2.849a39.29 39.29 0 0 0-.599-1.436l.743-.327c.215.486.419.975.612 1.466l-.756.297Zm1.006 2.94a31.65 31.65 0 0 0-.469-1.48l.768-.264c.174.504.334 1.01.481 1.518l-.78.226Zm.703 3.019a26.513 26.513 0 0 0-.309-1.518l.79-.185c.122.52.229 1.042.32 1.564l-.801.139Zm.289 2.299a22.265 22.265 0 0 0-.071-.768l.807-.089a21.413 21.413 0 0 1 .117 1.589l-.812.026a16.208 16.208 0 0 0-.041-.758Zm-.114 3.785c.067-.5.115-1.003.141-1.511l.811.042a19.123 19.123 0 0 1-.147 1.577l-.805-.108Zm-37.156 2.878c.546-.022 1.103 0 1.667.064l-.09.807a10.265 10.265 0 0 0-1.545-.06l-.032-.811Zm-3.264.745a8.242 8.242 0 0 1 1.6-.532l.178.793c-.5.111-.981.27-1.444.479l-.334-.74Zm6.562-.393c.523.125 1.05.28 1.58.465l-.268.767a15.442 15.442 0 0 0-1.501-.442l.189-.79Zm-9.268 2.374a8.6 8.6 0 0 1 1.25-1.128l.481.654a7.828 7.828 0 0 0-1.132 1.022l-.599-.548Zm42.486-2.636a20.5 20.5 0 0 0 .377-1.473l.794.172a21.398 21.398 0 0 1-.392 1.532l-.779-.23Zm-30.111 1.337c.49.22.98.461 1.468.725l-.385.715a21.738 21.738 0 0 0-1.415-.699l.332-.741Zm-14.198 4.072c.247-.52.514-1.002.802-1.446l.681.442c-.266.411-.516.861-.748 1.352l-.735-.348Zm17.077-2.528c.455.284.908.586 1.357.903l-.468.663a28.007 28.007 0 0 0-1.319-.876l.43-.69Zm26.17-.026c.208-.464.402-.934.579-1.41l.761.283a24.9 24.9 0 0 1-.598 1.46l-.742-.333Zm-23.507 1.904c.422.333.841.68 1.253 1.039l-.533.612c-.403-.35-.811-.688-1.223-1.013l.503-.638Zm-20.618 2.974c.082-.274.167-.54.257-.798l.767.267c-.085.246-.167.5-.245.762-.077.26-.144.516-.201.765l-.792-.18c.06-.267.132-.54.214-.816Zm42.715-2.17c.259-.437.508-.882.744-1.334l.72.375c-.243.466-.499.925-.766 1.375l-.698-.415Zm-19.642 1.331c.39.373.774.757 1.15 1.15l-.587.562c-.368-.385-.743-.76-1.124-1.124l.561-.588Zm17.948 1.22c.301-.41.595-.828.878-1.255l.677.45a32.66 32.66 0 0 1-.901 1.286l-.654-.481ZM82.11 70.889a8.534 8.534 0 0 1-.043-1.678l.81.056a7.713 7.713 0 0 0 .039 1.519l-.806.103Zm25.738-2.62c.356.407.704.823 1.042 1.247l-.634.507a36.231 36.231 0 0 0-1.019-1.22l.611-.535Zm13.777 1.258c.335-.382.664-.773.988-1.175l.632.51c-.33.41-.668.81-1.009 1.2l-.611-.535Zm-38.337 4.509a7.234 7.234 0 0 1-.774-1.504l.76-.284c.178.474.409.919.688 1.335l-.674.453Zm26.588-3.227c.32.44.628.886.926 1.338l-.679.446c-.29-.441-.592-.877-.904-1.307l.657-.477Zm9.636.946a43.04 43.04 0 0 0 1.079-1.094l.589.558a41.63 41.63 0 0 1-1.1 1.117l-.568-.58Zm-33.853 4.628a10.062 10.062 0 0 1-1.29-1.056l.568-.582c.355.347.752.67 1.185.971l-.463.667Zm31.579-2.564c.382-.322.768-.66 1.156-1.011l.546.601c-.395.36-.789.703-1.179 1.031l-.523-.62Zm-5.575-.291c.277.47.541.945.791 1.424l-.721.376c-.243-.466-.5-.93-.77-1.387l.7-.413Zm-23.085 4.385a16.339 16.339 0 0 1-1.5-.68l.373-.72c.45.233.927.448 1.426.645l-.3.755Zm26.237-2.206c.397-.284.808-.591 1.229-.92l.499.641c-.429.335-.849.648-1.256.94l-.472-.66Zm-23.123 3.168a24.81 24.81 0 0 1-1.573-.424l.237-.777c.493.15 1.001.287 1.522.41l-.186.79Zm21.931-1.39c.121-.075.243-.153.368-.233l-.441-.682-.246.157c-.045-.103-.09-.206-.137-.308l-.74.334.159.36c-.113.047-.23.094-.352.14l.29.76c.129-.05.254-.1.375-.15.064.158.127.318.189.478l.758-.292a37.381 37.381 0 0 0-.223-.563ZM94.89 79.449a34.175 34.175 0 0 1-1.605-.246l.142-.8a32.42 32.42 0 0 0 1.567.24l-.104.806Zm16.08-.931a26.53 26.53 0 0 1-1.582.384l-.169-.795c.544-.115 1.057-.24 1.534-.372l.217.782ZM98.116 79.73a42.434 42.434 0 0 1-1.615-.11l.07-.808c.526.045 1.055.08 1.584.106l-.039.811Zm3.235.043a47.87 47.87 0 0 1-1.618.006l.011-.812a47.03 47.03 0 0 0 1.59-.007l.017.813Zm6.443-.574c-.519.085-1.057.162-1.608.23l-.1-.806a40.13 40.13 0 0 0 1.576-.225l.132.801Zm-3.215.4c-.529.046-1.067.084-1.612.113l-.044-.81a47.587 47.587 0 0 0 1.585-.113l.071.81Zm9.905.244c.197.605.377 1.214.54 1.828l-.785.208a34.031 34.031 0 0 0-.527-1.784l.772-.252Zm.977 3.684c.127.624.236 1.251.326 1.88l-.805.114a30.388 30.388 0 0 0-.317-1.831l.796-.163Zm.534 3.777c.024.318.043.636.057.954.012.273.019.547.021.82l-.812.007a26.22 26.22 0 0 0-.076-1.719l.81-.062Zm.038 3.413c-.031.545-.08 1.09-.145 1.632l-.807-.096a24.74 24.74 0 0 0 .141-1.582l.811.046Zm-.387 3.25a30.56 30.56 0 0 1-.333 1.602l-.79-.187c.122-.517.23-1.037.323-1.557l.8.143Zm-.748 3.181a34.79 34.79 0 0 1-.491 1.557l-.768-.262c.171-.505.331-1.012.479-1.52l.78.225Zm-1.05 3.088a39.42 39.42 0 0 1-.623 1.506l-.744-.325c.213-.488.417-.981.61-1.475l.757.294Zm-1.303 2.986c-.235.489-.479.974-.732 1.454l-.719-.378c.248-.472.488-.948.72-1.428l.731.352Zm-1.512 2.881a54.11 54.11 0 0 1-.824 1.401l-.694-.422c.277-.455.548-.915.812-1.38l.706.401Zm-1.689 2.777c-.296.457-.597.907-.903 1.351l-.669-.46c.302-.439.599-.883.891-1.333l.681.442Zm-1.841 2.677c-.32.44-.644.874-.97 1.301l-.645-.494c.322-.421.642-.85.958-1.285l.657.478Zm-1.971 2.577c-.343.426-.688.844-1.033 1.253l-.621-.523c.341-.405.682-.818 1.021-1.239l.633.509Zm-2.094 2.483c-.363.412-.726.813-1.087 1.204l-.597-.551c.357-.386.716-.783 1.075-1.191l.609.538Zm-2.199 2.381c-.386.399-.769.785-1.145 1.156l-.57-.578c.371-.367.749-.748 1.131-1.143l.584.565Zm-2.314 2.281c-.41.386-.811.752-1.2 1.098l-.54-.607c.384-.341.78-.703 1.184-1.083l.556.592Zm-2.429 2.156c-.215.179-.424.351-.628.514l-.509-.633c.2-.161.406-.329.617-.505l.52.624Z" fill="#000"/><path d="M99.138 14.614c.908-4.142 7.347-10.536 10.222-4.848 2.636 5.213-6.859 6.222-10.222 4.848Z" fill="#F5ABCC"/><rect x="94.627" y="14.155" width="4.126" height="7.745" rx="2.063" transform="rotate(-56.652 94.627 14.155)" fill="#000"/><path d="M95.404 186v-60.907L29.123 87.475v60.906L95.403 186Z" fill="#565656"/><path d="M95.403 186v-60.907l66.281-37.618v60.906L95.403 186Z" fill="#797979"/><path d="m13 110.762 17.018-23.287 65.385 37.618-18.81 25.975L13 110.762Z" fill="#6b6b6b"/><path d="m177.807 110.762-17.018-23.287-65.385 37.618 18.809 25.975 63.594-40.306Z" fill="#a2a2a2"/></svg>